<svg width="2425" height="2425" viewBox="0 0 2425 2425" fill="none" xmlns="http://www.w3.org/2000/svg">
<path fill-rule="evenodd" clip-rule="evenodd" d="M938.082 1345.7C938.082 1374.01 915.14 1396.96 886.839 1396.96C858.533 1396.96 835.588 1374.01 835.588 1345.7C835.588 1300.41 853.956 1259.38 883.652 1229.68C913.34 1199.99 954.37 1181.62 999.675 1181.62C1044.99 1181.62 1086 1200 1115.69 1229.68C1145.26 1259.25 1163.55 1300.26 1163.55 1345.7H1163.75C1163.75 1374.01 1140.81 1396.96 1112.5 1396.96C1084.2 1396.96 1061.26 1374.01 1061.26 1345.7L1061.46 1345.7C1061.46 1328.83 1054.49 1313.42 1043.22 1302.16C1032.09 1291.02 1016.68 1284.12 999.674 1284.12C982.66 1284.12 967.26 1291.01 956.12 1302.15C944.972 1313.3 938.082 1328.7 938.082 1345.7Z" fill="#5E5E5E"/>
<path fill-rule="evenodd" clip-rule="evenodd" d="M1365.22 1345.7C1365.22 1374.01 1342.28 1396.96 1313.98 1396.96C1285.67 1396.96 1262.73 1374.01 1262.73 1345.7C1262.73 1300.41 1281.1 1259.38 1310.8 1229.68C1340.49 1199.99 1381.51 1181.62 1426.81 1181.62C1472.13 1181.62 1513.15 1200 1542.83 1229.68C1572.41 1259.25 1590.69 1300.26 1590.69 1345.7H1590.89C1590.89 1374.01 1567.95 1396.96 1539.64 1396.96C1511.34 1396.96 1488.4 1374.01 1488.4 1345.7L1488.6 1345.7C1488.6 1328.83 1481.64 1313.42 1470.37 1302.16C1459.23 1291.01 1443.82 1284.12 1426.82 1284.12C1409.81 1284.12 1394.4 1291.01 1383.26 1302.15C1372.12 1313.3 1365.22 1328.7 1365.22 1345.7Z" fill="#5E5E5E"/>
<path fill-rule="evenodd" clip-rule="evenodd" d="M766.694 1065.51V1513.07C766.694 1601.8 839.059 1674.28 927.787 1674.17L1499.64 1673.44C1588.37 1673.33 1660.93 1601.07 1660.74 1512.34L1659.8 1065.51C1659.61 976.784 1587.42 904.415 1498.69 904.415H927.787C839.059 904.415 766.694 976.784 766.694 1065.51ZM1168.89 296.356C1165.29 296.356 1161.68 297.735 1158.93 300.482C1156.18 303.239 1154.8 306.846 1154.8 310.452C1154.8 314.061 1156.18 317.673 1158.93 320.419C1161.68 323.171 1165.29 324.545 1168.89 324.545C1172.5 324.545 1176.11 323.17 1178.86 320.419C1181.61 317.667 1182.99 314.061 1182.99 310.452C1182.99 306.846 1181.61 303.239 1178.86 300.482C1176.11 297.737 1172.5 296.356 1168.89 296.356ZM1153.92 381.747C1150.31 381.747 1146.7 383.125 1143.95 385.878C1141.2 388.63 1139.83 392.236 1139.83 395.843C1139.83 399.446 1141.2 403.058 1143.95 405.804C1146.7 408.556 1150.31 409.935 1153.92 409.935C1157.52 409.935 1161.14 408.556 1163.88 405.804C1166.64 403.058 1168.01 399.446 1168.01 395.843C1168.01 392.236 1166.64 388.63 1163.88 385.878C1161.14 383.125 1157.52 381.747 1153.92 381.747ZM1272.57 343.33C1276.17 343.33 1279.78 344.708 1282.53 347.455C1285.28 350.209 1286.66 353.821 1286.66 357.422C1286.66 361.028 1285.28 364.637 1282.53 367.389C1279.78 370.141 1276.17 371.519 1272.57 371.519C1268.97 371.519 1265.36 370.141 1262.6 367.389C1259.85 364.637 1258.47 361.028 1258.47 357.422C1258.47 353.821 1259.85 350.209 1262.6 347.455C1265.36 344.708 1268.97 343.33 1272.57 343.33ZM1223.27 402.869C1225.82 405.416 1227.39 408.944 1227.39 412.834C1227.39 416.725 1225.82 420.252 1223.27 422.8C1220.72 425.353 1217.19 426.932 1213.31 426.932C1209.41 426.932 1205.89 425.353 1203.33 422.8C1200.78 420.252 1199.21 416.725 1199.21 412.834C1199.21 408.944 1200.78 405.416 1203.33 402.869C1205.89 400.314 1209.41 398.738 1213.31 398.738C1217.19 398.738 1220.72 400.314 1223.27 402.869ZM1173.49 212H1206.88V263.392L1182.86 287.407C1178.59 284.806 1173.74 283.512 1168.89 283.512C1162 283.512 1155.1 286.144 1149.84 291.402C1144.59 296.661 1141.96 303.56 1141.96 310.452C1141.96 317.346 1144.58 324.242 1149.84 329.505C1155.1 334.762 1162 337.395 1168.89 337.395C1175.79 337.395 1182.69 334.762 1187.94 329.505C1193.21 324.242 1195.84 317.346 1195.84 310.452C1195.84 305.608 1194.54 300.77 1191.94 296.493L1206.88 281.557V333.797L1167.88 372.79C1163.61 370.196 1158.77 368.901 1153.92 368.901C1147.02 368.901 1140.13 371.528 1134.87 376.791C1129.61 382.048 1126.97 388.944 1126.97 395.841C1126.97 402.736 1129.61 409.629 1134.87 414.892C1140.13 420.15 1147.02 422.782 1153.92 422.782C1160.81 422.782 1167.71 420.146 1172.97 414.892C1178.23 409.629 1180.86 402.736 1180.86 395.841C1180.86 390.998 1179.56 386.154 1176.96 381.876L1206.88 351.968V386.663C1202.02 387.853 1197.68 390.359 1194.25 393.782C1189.37 398.662 1186.36 405.394 1186.36 412.832C1186.36 420.273 1189.37 427.008 1194.25 431.883C1199.13 436.76 1205.86 439.775 1213.3 439.775C1220.74 439.775 1227.47 436.76 1232.35 431.883C1237.23 427.008 1240.24 420.273 1240.24 412.832C1240.24 405.394 1237.23 398.662 1232.35 393.782C1228.93 390.359 1224.58 387.853 1219.73 386.663V313.661L1249.52 343.459C1246.93 347.737 1245.62 352.577 1245.62 357.421C1245.62 364.315 1248.25 371.214 1253.52 376.471C1258.77 381.734 1265.67 384.361 1272.57 384.361C1279.46 384.361 1286.36 381.734 1291.62 376.471C1296.87 371.214 1299.5 364.315 1299.5 357.421C1299.5 350.529 1296.87 343.633 1291.62 338.37C1286.36 333.112 1279.46 330.48 1272.57 330.48C1267.73 330.48 1262.88 331.781 1258.6 334.381L1219.73 295.491V212H1252.99C1307.64 212 1352.35 256.714 1352.35 311.361V390.857C1352.35 445.505 1307.64 490.218 1252.99 490.218H1244.16V573.822H1536.44C1753.54 573.822 1931.18 751.452 1931.18 968.558V1124.51H1957.92C2042.93 1124.51 2112.48 1194.06 2112.48 1279.08V1411.56C2112.48 1496.58 2042.93 1566.13 1957.92 1566.13H1931.18L1932.13 1816.54C1932.25 1849.3 1927.71 1878.72 1920.09 1909.21C1692.85 1807.79 593.668 2038.05 1282.8 2066.24C1282.8 2054.86 1910.66 1940.84 1910.66 1940.84C1857.98 2097.02 1710.74 2211.08 1537.38 2211.27L890.044 2212C672.935 2212.24 495.304 2034.37 495.304 1817.26V1566.13H468.564C383.552 1566.13 314 1496.58 314 1411.56V1279.08C314 1194.06 383.552 1124.51 468.564 1124.51H495.304V968.559C495.304 898.179 513.993 831.957 546.619 774.576C546.619 774.576 1003.88 466.135 558.096 755.622C628.519 646.469 751.21 573.825 890.043 573.825H1182.33V490.221H1173.49C1118.84 490.221 1074.13 445.51 1074.13 390.86V311.364C1074.13 256.714 1118.84 212 1173.49 212Z" fill="#838485"/>
<path fill-rule="evenodd" clip-rule="evenodd" d="M1173.49 212H1206.88H1252.99C1306.91 212 1352.35 256.714 1352.35 311.361V390.857C1352.35 445.505 1307.64 490.218 1252.99 490.218H1244.16V573.822H1536.44C1640.48 573.822 1735.43 614.624 1806.13 680.998C1614.33 702.86 1516.69 793.748 1447.08 904.416H927.787C839.058 904.416 766.693 976.785 766.693 1065.51V1372.12C737.217 1347.79 706.713 1317.65 674.836 1281.27C610.774 1208.14 547.286 1158.37 489.528 1124.51H495.302V968.559C495.302 898.179 513.991 831.957 546.617 774.576C546.617 774.576 556.151 757.656 558.094 755.622C628.518 646.469 751.209 573.825 890.043 573.825H1182.33V490.221H1173.49C1118.84 490.221 1074.13 445.51 1074.13 390.86V311.364C1074.13 256.714 1118.84 212 1173.49 212Z" fill="#C5C5C5"/>
<path fill-rule="evenodd" clip-rule="evenodd" d="M1911.97 1936.62C1859.29 2092.8 1710.75 2211.08 1537.39 2211.27L890.045 2212C672.936 2212.24 495.303 2034.37 495.303 1817.26V1566.13H468.564C386.22 1566.13 318.388 1500.88 314.203 1419.53C422.251 1445.06 536.793 1519.09 563.352 1712.96C616.532 2101.22 673.89 2141.84 938.865 2000.52C970.128 1983.85 1362.07 1807.69 1362.07 1807.69L1645.8 1862.72L1920.93 1906.86L1911.97 1936.62ZM2097.18 1212.22C2106.98 1232.48 2112.48 1255.16 2112.48 1279.07V1411.56C2112.48 1496.57 2042.93 1566.13 1957.92 1566.13H1931.18L1932.13 1816.54C1932.25 1849.3 1920.93 1906.86 1920.93 1906.86L1645.8 1862.72L1362.07 1807.69C1362.07 1807.69 1464.03 1744.98 1554.63 1750.87C1958.81 1799.38 1784.26 1428.14 2097.18 1212.22Z" fill="#5E5E5E"/>
</svg>
