<svg width="2425" height="2425" viewBox="0 0 2425 2425" fill="none" xmlns="http://www.w3.org/2000/svg">
<path fill-rule="evenodd" clip-rule="evenodd" d="M937.082 1345.7C937.082 1374.01 914.14 1396.96 885.839 1396.96C857.533 1396.96 834.588 1374.01 834.588 1345.7C834.588 1300.41 852.956 1259.38 882.652 1229.68C912.34 1199.99 953.37 1181.62 998.675 1181.62C1043.99 1181.62 1085 1200 1114.69 1229.68C1144.26 1259.25 1162.55 1300.26 1162.55 1345.7H1162.75C1162.75 1374.01 1139.81 1396.96 1111.5 1396.96C1083.2 1396.96 1060.26 1374.01 1060.26 1345.7L1060.46 1345.7C1060.46 1328.83 1053.49 1313.42 1042.22 1302.16C1031.09 1291.02 1015.68 1284.12 998.674 1284.12C981.66 1284.12 966.26 1291.01 955.12 1302.15C943.972 1313.3 937.082 1328.7 937.082 1345.7Z" fill="#1297E0"/>
<path fill-rule="evenodd" clip-rule="evenodd" d="M1364.22 1345.7C1364.22 1374.01 1341.28 1396.96 1312.98 1396.96C1284.68 1396.96 1261.73 1374.01 1261.73 1345.7C1261.73 1300.41 1280.1 1259.38 1309.8 1229.68C1339.49 1199.99 1380.51 1181.62 1425.81 1181.62C1471.13 1181.62 1512.15 1200 1541.83 1229.68C1571.41 1259.25 1589.69 1300.26 1589.69 1345.7H1589.89C1589.89 1374.01 1566.95 1396.96 1538.64 1396.96C1510.34 1396.96 1487.4 1374.01 1487.4 1345.7L1487.6 1345.7C1487.6 1328.83 1480.64 1313.42 1469.37 1302.16C1458.23 1291.01 1442.82 1284.12 1425.82 1284.12C1408.81 1284.12 1393.4 1291.01 1382.26 1302.15C1371.12 1313.3 1364.22 1328.7 1364.22 1345.7Z" fill="#1297E0"/>
<path fill-rule="evenodd" clip-rule="evenodd" d="M765.694 1065.51V1513.07C765.694 1601.8 838.059 1674.28 926.787 1674.17L1498.64 1673.44C1587.37 1673.33 1659.93 1601.07 1659.74 1512.34L1658.8 1065.51C1658.61 976.784 1586.42 904.415 1497.69 904.415H926.787C838.059 904.415 765.694 976.784 765.694 1065.51ZM1167.89 296.356C1164.29 296.356 1160.68 297.735 1157.93 300.482C1155.18 303.239 1153.8 306.846 1153.8 310.452C1153.8 314.061 1155.18 317.673 1157.93 320.419C1160.68 323.171 1164.29 324.545 1167.89 324.545C1171.5 324.545 1175.11 323.17 1177.86 320.419C1180.61 317.667 1181.99 314.061 1181.99 310.452C1181.99 306.846 1180.61 303.239 1177.86 300.482C1175.11 297.737 1171.5 296.356 1167.89 296.356ZM1152.92 381.747C1149.31 381.747 1145.7 383.125 1142.95 385.878C1140.2 388.63 1138.83 392.236 1138.83 395.843C1138.83 399.446 1140.2 403.058 1142.95 405.804C1145.7 408.556 1149.31 409.935 1152.92 409.935C1156.52 409.935 1160.14 408.556 1162.88 405.804C1165.64 403.058 1167.01 399.446 1167.01 395.843C1167.01 392.236 1165.64 388.63 1162.88 385.878C1160.14 383.125 1156.52 381.747 1152.92 381.747ZM1271.57 343.33C1275.17 343.33 1278.78 344.708 1281.53 347.455C1284.28 350.209 1285.66 353.821 1285.66 357.422C1285.66 361.028 1284.28 364.637 1281.53 367.389C1278.78 370.141 1275.17 371.519 1271.57 371.519C1267.97 371.519 1264.36 370.141 1261.6 367.389C1258.85 364.637 1257.47 361.028 1257.47 357.422C1257.47 353.821 1258.85 350.209 1261.6 347.455C1264.36 344.708 1267.97 343.33 1271.57 343.33ZM1222.27 402.869C1224.82 405.416 1226.39 408.944 1226.39 412.834C1226.39 416.725 1224.82 420.252 1222.27 422.8C1219.72 425.353 1216.19 426.932 1212.31 426.932C1208.41 426.932 1204.89 425.353 1202.33 422.8C1199.78 420.252 1198.21 416.725 1198.21 412.834C1198.21 408.944 1199.78 405.416 1202.33 402.869C1204.89 400.314 1208.41 398.738 1212.31 398.738C1216.19 398.738 1219.72 400.314 1222.27 402.869ZM1172.49 212H1205.88V263.392L1181.86 287.407C1177.59 284.806 1172.74 283.512 1167.89 283.512C1161 283.512 1154.1 286.144 1148.84 291.402C1143.59 296.661 1140.96 303.56 1140.96 310.452C1140.96 317.346 1143.58 324.242 1148.84 329.505C1154.1 334.762 1161 337.395 1167.89 337.395C1174.79 337.395 1181.69 334.762 1186.94 329.505C1192.21 324.242 1194.84 317.346 1194.84 310.452C1194.84 305.608 1193.54 300.77 1190.94 296.493L1205.88 281.557V333.797L1166.88 372.79C1162.61 370.196 1157.77 368.901 1152.92 368.901C1146.02 368.901 1139.13 371.528 1133.87 376.791C1128.61 382.048 1125.97 388.944 1125.97 395.841C1125.97 402.736 1128.61 409.629 1133.87 414.892C1139.13 420.15 1146.02 422.782 1152.92 422.782C1159.81 422.782 1166.71 420.146 1171.97 414.892C1177.23 409.629 1179.86 402.736 1179.86 395.841C1179.86 390.998 1178.56 386.154 1175.96 381.876L1205.88 351.968V386.663C1201.02 387.853 1196.68 390.359 1193.25 393.782C1188.37 398.662 1185.36 405.394 1185.36 412.832C1185.36 420.273 1188.37 427.008 1193.25 431.883C1198.13 436.76 1204.86 439.775 1212.3 439.775C1219.74 439.775 1226.47 436.76 1231.35 431.883C1236.23 427.008 1239.24 420.273 1239.24 412.832C1239.24 405.394 1236.23 398.662 1231.35 393.782C1227.93 390.359 1223.58 387.853 1218.73 386.663V313.661L1248.52 343.459C1245.93 347.737 1244.62 352.577 1244.62 357.421C1244.62 364.315 1247.25 371.214 1252.52 376.471C1257.77 381.734 1264.67 384.361 1271.57 384.361C1278.46 384.361 1285.36 381.734 1290.62 376.471C1295.87 371.214 1298.5 364.315 1298.5 357.421C1298.5 350.529 1295.87 343.633 1290.62 338.37C1285.36 333.112 1278.46 330.48 1271.57 330.48C1266.73 330.48 1261.88 331.781 1257.6 334.381L1218.73 295.491V212H1251.99C1306.64 212 1351.35 256.714 1351.35 311.361V390.857C1351.35 445.505 1306.64 490.218 1251.99 490.218H1243.16V573.822H1535.44C1752.54 573.822 1930.18 751.452 1930.18 968.558V1124.51H1956.92C2041.93 1124.51 2111.48 1194.06 2111.48 1279.08V1411.56C2111.48 1496.58 2041.93 1566.13 1956.92 1566.13H1930.18L1931.13 1816.54C1931.25 1849.3 1926.71 1878.72 1919.09 1909.21C1691.85 1807.79 592.668 2038.05 1281.8 2066.24C1281.8 2054.86 1909.66 1940.84 1909.66 1940.84C1856.98 2097.02 1709.74 2211.08 1536.38 2211.27L889.044 2212C671.935 2212.24 494.304 2034.37 494.304 1817.26V1566.13H467.564C382.552 1566.13 313 1496.58 313 1411.56V1279.08C313 1194.06 382.552 1124.51 467.564 1124.51H494.304V968.559C494.304 898.179 512.993 831.957 545.619 774.576C545.619 774.576 1002.88 466.135 557.096 755.622C627.519 646.469 750.21 573.825 889.043 573.825H1181.33V490.221H1172.49C1117.84 490.221 1073.13 445.51 1073.13 390.86V311.364C1073.13 256.714 1117.84 212 1172.49 212Z" fill="#1297E0"/>
<path fill-rule="evenodd" clip-rule="evenodd" d="M1172.49 212H1205.88H1251.99C1305.91 212 1351.35 256.714 1351.35 311.361V390.857C1351.35 445.505 1306.64 490.218 1251.99 490.218H1243.16V573.822H1535.44C1639.48 573.822 1734.43 614.624 1805.13 680.998C1613.33 702.86 1515.69 793.748 1446.08 904.416H926.786C838.058 904.416 765.693 976.785 765.693 1065.51V1372.12C736.217 1347.79 705.713 1317.65 673.836 1281.27C609.774 1208.14 546.286 1158.37 488.527 1124.51H494.302V968.559C494.302 898.179 512.991 831.957 545.617 774.576C545.617 774.576 555.151 757.656 557.094 755.622C627.517 646.469 750.209 573.825 889.043 573.825H1181.33V490.221H1172.49C1117.84 490.221 1073.13 445.51 1073.13 390.86V311.364C1073.13 256.714 1117.84 212 1172.49 212Z" fill="#19B5FE"/>
<path fill-rule="evenodd" clip-rule="evenodd" d="M1910.97 1936.62C1858.29 2092.8 1709.75 2211.08 1536.39 2211.27L889.045 2212C671.936 2212.24 494.303 2034.37 494.303 1817.26V1566.13H467.564C385.219 1566.13 317.388 1500.88 313.203 1419.53C421.251 1445.06 535.793 1519.09 562.352 1712.96C615.532 2101.22 672.89 2141.84 937.865 2000.52C969.128 1983.85 1361.07 1807.69 1361.07 1807.69L1644.8 1862.72L1919.93 1906.86L1910.97 1936.62ZM2096.18 1212.22C2105.98 1232.48 2111.48 1255.16 2111.48 1279.07V1411.56C2111.48 1496.57 2041.93 1566.13 1956.92 1566.13H1930.18L1931.13 1816.54C1931.25 1849.3 1919.93 1906.86 1919.93 1906.86L1644.8 1862.72L1361.07 1807.69C1361.07 1807.69 1463.03 1744.98 1553.63 1750.87C1957.81 1799.38 1783.26 1428.14 2096.18 1212.22Z" fill="#0287D0"/>
</svg>
