<svg width="32" height="32" viewBox="0 0 32 32" fill="none" xmlns="http://www.w3.org/2000/svg">
<path d="M26.6667 9.33342H22.6667V5.33341C22.6667 3.86275 21.4707 2.66675 20.0001 2.66675H12.0001C10.5294 2.66675 9.33342 3.86275 9.33342 5.33341V9.33342H5.33341C3.86275 9.33342 2.66675 10.5294 2.66675 12.0001V20.0001C2.66675 21.4707 3.86275 22.6667 5.33341 22.6667H9.33342V26.6667C9.33342 28.1374 10.5294 29.3334 12.0001 29.3334H20.0001C21.4707 29.3334 22.6667 28.1374 22.6667 26.6667V22.6667H26.6667C28.1374 22.6667 29.3334 21.4707 29.3334 20.0001V12.0001C29.3334 10.5294 28.1374 9.33342 26.6667 9.33342ZM26.6667 20.0001H20.0001V25.3334H20.0014V26.6667H12.0001V20.0001H5.33341V12.0001H12.0001V5.33341H20.0001V12.0001H26.6667V20.0001Z" fill="#4C4C4C"/>
<path d="M10.6667 18.6667V13.3334L6.66675 16.0001L10.6667 18.6667ZM21.3334 18.6667L25.3334 16.0001L21.3334 13.3334V18.6667ZM13.3334 10.6667H18.6667L16.0001 6.66675L13.3334 10.6667ZM16.0001 25.3334L18.6667 21.3334H13.3334L16.0001 25.3334Z" fill="#4C4C4C"/>
<path d="M15.9999 18.6666C17.4727 18.6666 18.6666 17.4727 18.6666 15.9999C18.6666 14.5272 17.4727 13.3333 15.9999 13.3333C14.5272 13.3333 13.3333 14.5272 13.3333 15.9999C13.3333 17.4727 14.5272 18.6666 15.9999 18.6666Z" fill="#4C4C4C"/>
</svg>
